<svg width="16" height="16" viewBox="0 0 16 16" fill="none" xmlns="http://www.w3.org/2000/svg">
<path d="M13.25 3.09875H2.76874C2.52874 3.09875 2.33374 3.29375 2.33374 3.53375V10.7325C2.33374 10.9725 2.52874 11.1675 2.76874 11.1675H13.25C13.49 11.1675 13.685 10.9725 13.685 10.7325V3.53375C13.685 3.29375 13.4912 3.09875 13.25 3.09875Z" fill="#B7D5E5"/>
<path d="M13.0937 10.4H2.92499L3.04499 3.86626H12.9737L13.0937 10.4Z" fill="url(#paint0_radial_34_2)"/>
<path d="M15.1362 15.4775H0.948737C0.894987 15.4775 0.844987 15.4738 0.798737 15.4663C0.438737 15.4113 0.272487 14.9438 0.486237 14.6238L0.534987 14.55H15.4837L15.5337 14.625C15.7662 14.9725 15.5487 15.47 15.1537 15.4763C15.1487 15.4775 15.1425 15.4775 15.1362 15.4775Z" fill="#2F7889"/>
<path d="M13.355 11.3013H2.57499C2.41624 11.3013 2.25749 11.3975 2.16874 11.55L0.418744 14.735C0.344994 14.845 0.417494 15 0.542494 15H15.475C15.6 15 15.6725 14.845 15.5987 14.735L13.76 11.5313C13.6725 11.3963 13.5137 11.3013 13.355 11.3013Z" fill="#EEEEEE"/>
<path d="M10.795 14.44H5.22501L5.58126 13.4425H10.465L10.795 14.44Z" fill="#B7D5E5"/>
<path opacity="0.57" d="M9.08624 11.855L9.05249 11.58H8.62249L8.63874 11.855H9.08624ZM8.39249 11.855L8.37499 11.58H7.94374V11.855H8.39249ZM11.7012 11.855L11.6 11.58H11.1925L11.2775 11.855H11.7012ZM11.045 11.855L10.96 11.58H10.545L10.6125 11.855H11.045ZM10.3975 11.855L10.33 11.58H9.90874L9.95999 11.855H10.3975ZM12.7637 11.855L12.645 11.58H11.8062L11.9087 11.855H12.7637ZM9.70124 11.855L9.64999 11.58H9.22374L9.25874 11.855H9.70124ZM4.21999 11.855L4.30499 11.58H3.89749L3.79624 11.855H4.21999ZM6.31374 11.855L6.34749 11.58H5.92124L5.87124 11.855H6.31374ZM4.91874 11.855L4.98624 11.58H4.57124L4.48749 11.855H4.91874ZM3.52124 11.855L3.62249 11.58H3.22499L3.10624 11.855H3.52124ZM5.61624 11.855L5.66749 11.58H5.24624L5.17874 11.855H5.61624ZM7.00999 11.855L7.02749 11.58H6.59749L6.56374 11.855H7.00999ZM7.70624 11.855V11.58H7.27499L7.25749 11.855H7.70624ZM10.4725 12.9663H5.54499L5.45124 13.2413H10.5862L10.4725 12.9663ZM12.7687 13.2413L12.6175 12.9663H13.435L13.5537 13.2413H12.7687ZM10.8437 13.2413L10.74 12.9663H11.5262L11.6462 13.2413H10.8437ZM11.9237 13.2413L11.8037 12.9663H12.3425L12.48 13.2413H11.9237ZM3.20874 13.2413L3.35999 12.9663H2.54249L2.42374 13.2413H3.20874ZM5.13374 13.2413L5.23749 12.9663H4.45124L4.33124 13.2413H5.13374ZM4.05249 13.2413L4.17374 12.9663H3.63499L3.49624 13.2413H4.05249ZM3.71374 12.3138L3.81624 12.04H2.98249L2.86374 12.3138H3.71374ZM12.2437 12.3138L12.1425 12.04H12.975L13.0937 12.3138H12.2437ZM12.0312 12.3138L11.9112 12.04H11.43L11.5325 12.3138H12.0312ZM10.7787 12.3138L10.6975 12.04H11.1787L11.2762 12.3138H10.7787ZM10.0237 12.3138L9.96499 12.04H10.4462L10.5212 12.3138H10.0237ZM9.26874 12.3138L9.23374 12.04H9.71374L9.76749 12.3138H9.26874ZM8.51499 12.3138L8.50124 12.04H8.98249L9.01249 12.3138H8.51499ZM7.75999 12.3138L7.76874 12.04H8.24999L8.25749 12.3138H7.75999ZM7.00499 12.3138L7.03624 12.04H7.51749L7.50374 12.3138H7.00499ZM6.25124 12.3138L6.30374 12.04H6.78499L6.74874 12.3138H6.25124ZM5.49624 12.3138L5.57124 12.04H6.05249L5.99374 12.3138H5.49624ZM4.74124 12.3138L4.83874 12.04H5.31999L5.23999 12.3138H4.74124ZM3.98749 12.3138L4.10624 12.04H4.58749L4.48499 12.3138H3.98749ZM3.71249 12.7775L3.81374 12.5025H2.71999L2.60124 12.7775H3.71249ZM11.9837 12.7775L11.8875 12.5025H11.3662L11.4462 12.7775H11.9837ZM10.6162 12.7775L10.5562 12.5025H11.0762L11.1537 12.7775H10.6162ZM9.78499 12.7775L9.74499 12.5025H10.2662L10.3225 12.7775H9.78499ZM8.95499 12.7775L8.93374 12.5025H9.45499L9.49249 12.7775H8.95499ZM8.12499 12.7775L8.12374 12.5025H8.64374L8.66249 12.7775H8.12499ZM7.29499 12.7775L7.31249 12.5025H7.83374L7.83249 12.7775H7.29499ZM6.46374 12.7775L6.50124 12.5025H7.02249L7.00124 12.7775H6.46374ZM5.63374 12.7775L5.69124 12.5025H6.21124L6.17124 12.7775H5.63374ZM4.80374 12.7775L4.87999 12.5025H5.40124L5.34124 12.7775H4.80374ZM3.97249 12.7775L4.06874 12.5025H4.58999L4.51124 12.7775H3.97249ZM12.1837 12.7775L12.0812 12.5025H13.175L13.2937 12.7775H12.1837Z" fill="#69A1BA"/>
<path d="M15.5912 14.735L13.7987 11.55C13.71 11.4163 13.5512 11.32 13.3925 11.32C13.3925 11.32 13.545 11.4575 13.5912 11.5238L15.165 14.4725C15.235 14.6 15.1425 14.755 14.9975 14.755H0.994985C0.851235 14.755 0.758735 14.6013 0.826235 14.475L2.31999 11.5775C2.36374 11.5025 2.55499 11.3288 2.55499 11.3288H2.49873C2.33998 11.3288 2.18124 11.425 2.09249 11.5775L0.409985 14.735C0.336235 14.845 0.408735 15 0.533735 15H15.4662C15.5925 15 15.665 14.845 15.5912 14.735Z" fill="#B7D5E5"/>
<path d="M3.24625 3.5025H4.8975" stroke="#EEEEEE" stroke-width="0.367" stroke-miterlimit="10" stroke-linecap="round"/>
<path d="M13.6712 3.76375C13.6712 3.63375 13.545 3.62375 13.545 3.7775V10.7525C13.545 10.92 13.4087 11.0563 13.2412 11.0563H2.75999C2.59249 11.0563 2.45624 10.92 2.45624 10.7525V3.7775C2.45624 3.62375 2.32999 3.63375 2.32999 3.76375L2.21124 10.7525C2.21124 11.055 2.36624 11.3013 2.75999 11.3013H13.2412C13.5825 11.3013 13.79 11.055 13.79 10.7525L13.6712 3.76375Z" fill="#75A7BC"/>
<defs>
<radialGradient id="paint0_radial_34_2" cx="0" cy="0" r="1" gradientUnits="userSpaceOnUse" gradientTransform="translate(6.05099 0.491498) scale(9.43313 10.2283)">
<stop stop-color="#2F7889"/>
<stop offset="1" stop-color="#424242"/>
</radialGradient>
</defs>
</svg>
